<?xml version="1.0" encoding="UTF-8"?>
<svg xmlns="http://www.w3.org/2000/svg" viewBox="0 0 1 1">
  <path
    d="M 0.478,2.03e-4 C 0.345,0.00598 0.473,0.126 0.352,0.183 0.231,0.239 0.221,0.0638 0.131,0.162 c -0.0899,0.0981 0.0853,0.0932 0.0397,0.218 -0.0455,0.125 -0.177,0.0086 -0.171,0.142 0.00578,0.133 0.126,0.00559 0.182,0.126 0.0562,0.121 -0.119,0.131 -0.0206,0.221 0.0981,0.0899 0.0932,-0.0853 0.218,-0.0397 0.125,0.0455 0.0086,0.177 0.142,0.171 0.133,-0.00578 0.00559,-0.126 0.126,-0.182 0.121,-0.0562 0.131,0.119 0.221,0.0206 0.0899,-0.0981 -0.0853,-0.0932 -0.0397,-0.218 0.0455,-0.125 0.177,-0.0086 0.171,-0.142 -0.00578,-0.133 -0.126,-0.00559 -0.182,-0.126 -0.0562,-0.121 0.119,-0.131 0.0206,-0.221 -0.0981,-0.0899 -0.0932,0.0853 -0.218,0.0397 -0.125,-0.0455 -0.0086,-0.177 -0.142,-0.171 z M 0.5,0.354 c 0.104,0 0.146,0.0423 0.146,0.146 0,0.104 -0.0423,0.146 -0.146,0.146 -0.104,0 -0.146,-0.0423 -0.146,-0.146 0,-0.104 0.0423,-0.146 0.146,-0.146 z"
    style="fill:#ffffff;fill-opacity:1;stroke:none;stroke-width:1;stroke-miterlimit:4;stroke-dasharray:none;stroke-opacity:1"
	/>
</svg>
